# Alias OBJ Model File
# Exported from SketchUp, (c) 2000-2012 Trimble Navigation Limited
# File units = meters

mtllib Laptop.mtl

g Mesh1 Model

usemtl Material5
v 1.29468 -0.03 -0.986269
vt -0.716366 0.867094
vn 0.410429 -0.493294 -0.766948
v 1.40028 -0.03 -0.986269
vt -0.734511 0.867094
vn 0.57735 -0.57735 -0.57735
v 1.40028 -0.03 1.1244
vt -0.734511 0.205443
vn 0.57735 -0.57735 0.57735
v -1.42776 -0.03 1.1244
vt -0.248542 0.205443
vn -0.340839 -0.810236 0.476808
v -1.42776 -0.03 -0.99772
vt -0.248542 0.870684
vn -0.340839 -0.810236 -0.476808
v -1.28409 -0.03 -0.99772
vt -0.27323 0.870684
vn -0.441983 -0.502894 -0.742798
v -1.26978 -0.03 -1.02409
vt -0.275689 0.87895
v 1.26947 -0.03 -1.02409
vt -0.712033 0.87895
f 1/1/1 2/2/2 3/3/3 4/4/4 5/5/5 6/6/6 7/7/6 8/8/1 

usemtl Material1
vt -0.92362 0.998089
vn -0.410429 0.493294 0.766948
vt -0.0772041 0.998089
vn 0.441983 0.502894 0.742798
vt -0.0724336 0.986064
vt -0.0245446 0.986064
vn 0.340839 0.810236 0.476808
vt -0.0245446 0.0182425
vn 0.340839 0.810236 -0.476808
vt -0.967223 0.0182425
vn -0.57735 0.57735 -0.57735
vt -0.967223 0.980841
vn -0.57735 0.57735 0.57735
vt -0.932025 0.980841
f 8/9/7 7/10/8 6/11/8 5/12/9 4/13/10 3/14/11 2/15/12 1/16/7 

usemtl Material2
vt -0.92362 1.15001
vt -0.0772041 1.15001
v -1.26978 0.1542 -1.02409
vt -0.0772041 1.93458
vn -0.441983 0.502894 -0.742798
v 1.26947 0.1542 -1.02409
vt -0.92362 1.93458
vn 0.410429 0.493294 -0.766948
f 8/17/1 7/18/6 9/19/13 10/20/14 

usemtl Material1
vt -0.92362 0.207144
vn -0.410429 -0.493294 0.766948
vt -0.0772041 0.207144
vn 0.441983 -0.502894 0.742798
vt -0.0772041 0.123137
vt -0.92362 0.123137
f 10/21/15 9/22/16 7/23/8 8/24/7 

v 1.48457 0.1542 1.1244
vt 0.995321 0.0182425
vn 0.57735 0.57735 0.57735
v 1.48457 0.1542 -0.986269
vt 0.995321 0.980841
vn 0.57735 0.57735 -0.57735
v 1.29468 0.1542 -0.986269
vt 0.932025 0.980841
vt 0.92362 0.998089
vt 0.0772041 0.998089
v -1.28409 0.1542 -0.99772
vt 0.0724336 0.986064
v -1.49139 0.1542 -0.99772
vt 0.00333333 0.986064
vn -0.57735 0.57735 -0.57735
v -1.49139 0.1542 1.1244
vt 0.00333333 0.0182425
vn -0.57735 0.57735 0.57735
f 11/25/17 12/26/18 13/27/14 10/28/14 9/29/13 14/30/13 15/31/19 16/32/20 

vn 0.57735 -0.57735 -0.57735
vn 0.57735 -0.57735 0.57735
vn -0.57735 -0.57735 0.57735
vn -0.57735 -0.57735 -0.57735
f 16/32/21 15/31/22 14/30/16 9/29/16 10/28/15 13/27/15 12/26/23 11/25/24 

vt -0.720707 0.207144
v -1.49139 0.124205 -0.99772
vt -0.720707 0.193464
vn -0.76458 -0.413718 -0.494222
v -1.49139 0.124205 1.1244
vt -0.0133333 0.193464
vn -0.76458 -0.413718 0.494222
vt -0.0133333 0.207144
f 15/33/19 17/34/25 18/35/26 16/36/20 

vn 0.76458 0.413718 -0.494222
vn 0.76458 0.413718 0.494222
f 16/36/21 18/35/27 17/34/28 15/33/22 

usemtl Material3
vt 0.0256607 1.09398
vt 0.968339 1.09398
v 1.40028 -0.00608601 1.1244
vt 0.968339 1.20471
vn 0.785496 -0.382994 0.486119
v 1.45543 0.0370236 1.1244
vt 0.986723 1.4043
vn 0.550835 -0.704685 0.447214
v 1.47119 0.0493407 1.1244
vt 0.991975 1.46133
vn 0.785496 -0.382994 0.486119
v 1.47119 0.119341 1.1244
vt 0.991975 1.78542
vn 0.822929 -0.316019 0.472143
v 1.48457 0.1342 1.1244
vt 0.996437 1.85422
vn 0.822929 -0.316019 0.472143
vt 0.996437 1.94682
vt 0.00444949 1.94682
vt 0.00444949 1.80794
vn -0.76458 -0.413718 0.494222
v -1.47977 0.116608 1.1244
vt 0.0083242 1.77277
vn -0.757272 -0.0310743 0.65236
v -1.48766 0.110471 1.1244
vt 0.00569261 1.74436
vn -0.814543 0.260814 0.518166
v -1.47908 0.0817249 1.1244
vt 0.00855395 1.61126
vn -0.506967 -0.680478 0.529088
v -1.44908 0.0817249 1.1244
vt 0.018554 1.61126
vn -0.361999 -0.0734071 0.929284
v -1.47671 0.0700385 1.1244
vt 0.00934389 1.55716
vn -0.714791 0.473772 0.514406
v -1.47671 0.0200385 1.1244
vt 0.00934389 1.32566
vn -0.814773 -0.332256 0.475132
f 4/37/4 3/38/3 19/39/29 20/40/30 21/41/31 22/42/32 23/43/33 11/44/17 16/45/20 18/46/34 24/47/35 25/48/36 26/49/37 27/50/38 28/51/39 29/52/40 

usemtl Material1
vt 0.00822773 0.145958
vn 0.814773 0.332256 -0.475132
vt 0.00822773 0.168761
vn 0.714791 -0.473772 -0.514406
vt 0.0174378 0.174091
vn 0.361999 0.0734071 -0.929284
vt 0.0074378 0.174091
vn 0.506967 0.680478 -0.529088
vt 0.00457645 0.187201
vn 0.814543 -0.260814 -0.518166
vt 0.00720804 0.19
vn 0.757272 0.0310743 -0.65236
vt 0.00333333 0.193464
vn 0.76458 0.413718 -0.494222
vt 0.00333333 0.207144
vt 0.995321 0.207144
vt 0.995321 0.198023
vn -0.822929 0.316019 -0.472143
vt 0.990859 0.191246
vn -0.822929 0.316019 -0.472143
vt 0.990859 0.159322
vn -0.785496 0.382994 -0.486119
vt 0.985606 0.153704
vn -0.550835 0.704685 -0.447214
vt 0.967223 0.134043
vn -0.785496 0.382994 -0.486119
vt 0.967223 0.123137
vt 0.0245446 0.123137
f 29/53/41 28/54/42 27/55/43 26/56/44 25/57/45 24/58/46 18/59/47 16/60/21 11/61/24 23/62/48 22/63/49 21/64/50 20/65/51 19/66/52 3/67/11 4/68/10 

vt -0.0133333 0.145958
vn -0.814773 -0.332256 0.475132
vt -0.0133333 0.168761
v -1.47671 0.0700385 -0.99772
vt -0.720707 0.168761
vn -0.714791 0.473772 -0.514406
v -1.47671 0.0200385 -0.99772
vt -0.720707 0.145958
vn -0.814773 -0.332256 -0.475132
f 29/69/53 28/70/39 30/71/54 31/72/55 

vn 0.814773 0.332256 0.475132
vn 0.714791 -0.473772 0.514406
vn 0.814773 0.332256 -0.475132
f 31/72/56 30/71/57 28/70/42 29/69/58 

usemtl Material2
vt 0.00181651 1.96292
vt -0.0672838 1.96292
vt -0.0672838 1.17836
vt -0.0193947 1.17836
vt -0.00307789 1.39148
vt -0.00307789 1.60445
v -1.44908 0.0817249 -0.99772
vt -0.012288 1.65423
vn -0.361999 -0.0734071 -0.929284
v -1.47908 0.0817249 -0.99772
vt -0.00228795 1.65423
vn -0.506967 -0.680478 -0.529088
v -1.48766 0.110471 -0.99772
vt 0.000573388 1.77666
vn -0.814543 0.260814 -0.518166
v -1.47977 0.116608 -0.99772
vt -0.0020582 1.80281
vn -0.757272 -0.0310743 -0.65236
vt 0.00181651 1.83516
vn -0.76458 -0.413718 -0.494222
f 15/73/19 14/74/13 6/75/6 5/76/5 31/77/55 30/78/54 32/79/59 33/80/60 34/81/61 35/82/62 17/83/63 

usemtl Material1
vt -0.00333333 0.193464
vn 0.76458 0.413718 0.494222
vt -0.00720804 0.19
vn 0.757272 0.0310743 0.65236
vt -0.00457645 0.187201
vn 0.814543 -0.260814 0.518166
vt -0.0074378 0.174091
vn 0.506967 0.680478 0.529088
vt -0.0174378 0.174091
vn 0.361999 0.0734071 0.929284
vt -0.00822773 0.168761
vt -0.00822773 0.145958
vt -0.0245446 0.123137
vt -0.0724336 0.123137
vt -0.0724336 0.207144
vt -0.00333333 0.207144
f 17/84/64 35/85/65 34/86/66 33/87/67 32/88/68 30/89/57 31/90/56 5/91/9 6/92/8 14/93/16 15/94/22 

vt -0.0133333 0.0956813
vn -0.757272 -0.0310743 0.65236
vt -0.0133333 0.102014
vt -0.720707 0.102014
vt -0.720707 0.0956813
vn -0.757272 -0.0310743 -0.65236
f 24/95/69 18/96/26 17/97/25 35/98/70 

vn 0.757272 0.0310743 0.65236
vn 0.757272 0.0310743 -0.65236
f 35/98/71 17/97/28 18/96/27 24/95/72 

vt -0.0133333 0.119844
vt -0.0133333 0.124404
vt -0.720707 0.124404
vt -0.720707 0.119844
f 25/99/36 24/100/69 35/101/70 34/102/61 

f 34/102/66 35/101/71 24/100/72 25/99/45 

vt -0.0133333 0.1639
vn -0.506967 -0.680478 0.529088
vt -0.0133333 0.177582
vt -0.720707 0.177582
vt -0.720707 0.1639
f 26/103/73 25/104/36 34/105/61 33/106/60 

vn 0.506967 0.680478 -0.529088
f 33/106/67 34/105/66 25/104/45 26/103/74 

vt -0.0174378 0.0182425
vn -0.361999 -0.0734071 0.929284
vt -0.0074378 0.0182425
vt -0.0074378 0.986064
vt -0.0174378 0.986064
vn -0.361999 -0.0734071 -0.929284
f 27/107/75 26/108/73 33/109/60 32/110/76 

vn 0.361999 0.0734071 0.929284
vn 0.361999 0.0734071 -0.929284
f 32/110/77 33/109/67 26/108/74 27/107/78 

vt -0.0133333 0.0761082
vt -0.0133333 0.0897901
vn -0.361999 -0.0734071 0.929284
vt -0.720707 0.0897901
vt -0.720707 0.0761082
f 28/111/39 27/112/79 32/113/59 30/114/54 

vn 0.361999 0.0734071 -0.929284
f 30/114/57 32/113/68 27/112/80 28/111/42 

vt -0.0133333 0.0645395
vt -0.0133333 0.0964639
vt -0.720707 0.0964639
vt -0.720707 0.0645395
f 4/115/4 29/116/53 31/117/55 5/118/5 

f 5/118/9 31/117/56 29/116/58 4/115/10 

usemtl Material2
vt -0.0653478 1.9386
vt -0.0753478 1.9386
vt -0.0753478 1.15404
vt -0.0653478 1.15404
f 14/119/13 9/120/13 7/121/6 6/122/6 

usemtl Material1
vt -0.667968 0.123137
vt -0.677968 0.123137
vt -0.677968 0.207144
vt -0.667968 0.207144
f 6/123/8 7/124/8 9/125/16 14/126/16 

vt 0.0133333 0.207144
vt 0.0133333 0.198023
v 1.48457 0.1342 -0.986269
vt 0.716889 0.198023
vn 0.822929 -0.316019 -0.472143
vt 0.716889 0.207144
f 11/127/17 23/128/33 36/129/81 12/130/18 

vn -0.822929 0.316019 0.472143
f 12/130/23 36/129/82 23/128/48 11/127/24 

usemtl Material2
vt -0.932025 1.93458
vt -0.995321 1.93458
vt -0.995321 1.84939
v 1.47119 0.119341 -0.986269
vt -0.990859 1.7861
v 1.47119 0.0493407 -0.986269
vt -0.990859 1.48795
vn 0.785496 -0.382994 -0.486119
v 1.45543 0.0370236 -0.986269
vt -0.985606 1.43549
vn 0.550835 -0.704685 -0.447214
v 1.40028 -0.00608601 -0.986269
vt -0.967223 1.25187
vn 0.785496 -0.382994 -0.486119
vt -0.967223 1.15001
vt -0.932025 1.15001
f 13/131/14 12/132/18 36/133/81 37/134/81 38/135/83 39/136/84 40/137/85 2/138/2 1/139/1 

usemtl Material1
vt -0.932025 0.123137
vt -0.967223 0.123137
vt -0.967223 0.134043
vn -0.785496 0.382994 0.486119
vt -0.985606 0.153704
vn -0.550835 0.704685 0.447214
vt -0.990859 0.159322
vn -0.785496 0.382994 0.486119
vt -0.990859 0.191246
vt -0.995321 0.198023
vt -0.995321 0.207144
vt -0.932025 0.207144
f 1/140/7 2/141/12 40/142/86 39/143/87 38/144/88 37/145/82 36/146/82 12/147/23 13/148/15 

vt 0.0133333 0.134043
vt 0.0133333 0.123137
vt 0.716889 0.123137
vt 0.716889 0.134043
f 19/149/29 3/150/3 2/151/2 40/152/85 

f 40/152/86 2/151/12 3/150/11 19/149/52 

vt 0.0133333 1.15709
vt 0.0133333 1.12516
vt 0.716889 1.12516
vt 0.716889 1.15709
f 20/153/30 19/154/29 40/155/85 39/156/84 

f 39/156/87 40/155/86 19/154/52 20/153/51 

vt 0.0133333 1.16621
vn 0.785496 -0.382994 0.486119
vt 0.0133333 1.15709
vt 0.716889 1.15709
vt 0.716889 1.16621
f 21/157/89 20/158/30 39/159/84 38/160/83 

vn -0.785496 0.382994 -0.486119
f 38/160/88 39/159/87 20/158/51 21/157/90 

vt 0.0133333 0.191246
vt 0.0133333 0.159322
vt 0.716889 0.159322
vt 0.716889 0.191246
f 22/161/33 21/162/89 38/163/83 37/164/81 

f 37/164/82 38/163/88 21/162/90 22/161/48 

vt -0.00454484 1.12451
vt -0.00454484 1.11539
vt 0.699011 1.11539
vt 0.699011 1.12451
f 23/165/33 22/166/33 37/167/81 36/168/81 

f 36/168/82 37/167/82 22/166/48 23/165/48 

usemtl Material2
vt 0.124696 1.93469
vt 0.109545 1.93469
vt 0.109545 1.15013
vt 0.124696 1.15013
f 10/169/14 13/170/14 1/171/1 8/172/1 

usemtl Material1
vt 0.0945761 0.123137
vt 0.0794249 0.123137
vt 0.0794249 0.207144
vt 0.0945761 0.207144
f 8/173/7 1/174/7 13/175/15 10/176/15 

g Mesh2 Model

v 1.26947 0.1542 -1.01409
l 10 41

g Mesh3 Model

l 20 39

